<svg width="65" height="65" viewBox="0 0 65 65" xmlns="http://www.w3.org/2000/svg">
  <path d="M19.1171 34.4121V30.5886H51.6171V34.4121H19.1171Z" fill="#383838" />
  <path
    d="M65 32.5C65 50.4706 50.4706 65 32.5 65C14.5294 65 0 50.4706 0 32.5C0 14.5294 14.5294 0 32.5 0C50.4706 0 65 14.5294 65 32.5ZM3.82353 32.5C3.82353 48.3676 16.6324 61.1765 32.5 61.1765C48.3676 61.1765 61.1765 48.3676 61.1765 32.5C61.1765 16.6324 48.3676 3.82353 32.5 3.82353C16.6324 3.82353 3.82353 16.6324 3.82353 32.5Z"
    fill="#383838" />
  <path
    d="M35.7515 16.6312L19.8838 32.4989L35.7515 48.3665L33.075 51.043L14.5309 32.4989L33.075 13.9547L35.7515 16.6312Z"
    fill="#383838" />
</svg>